<?xml version="1.0" encoding="UTF-8"?>
<svg version="1.1" xmlns="http://www.w3.org/2000/svg" width="517" height="482">
<path d="M0 0 C11.75750577 4.48162103 22.42188778 11.77750457 33.078125 18.359375 C38.63611631 21.79000974 44.24388143 25.12862387 49.875 28.4375 C58.03697359 33.24398731 66.18354833 38.07534009 74.3125 42.9375 C75.3442334 43.55230225 76.3759668 44.16710449 77.43896484 44.80053711 C82.73508129 47.9732719 87.9424814 51.22497281 93.03930664 54.70996094 C95.73555717 56.48396016 98.54858562 57.99936139 101.3828125 59.5390625 C104.63101104 61.35223602 107.81562478 63.2654182 111 65.1875 C115.68577534 68.01442124 120.38100943 70.82256035 125.10229492 73.58984375 C127.21635705 74.82942028 129.32696797 76.07473691 131.4375 77.3203125 C134.71692676 79.25355482 138.01187136 81.15789766 141.3125 83.0546875 C143.10439169 84.09857216 144.89606222 85.14283656 146.6875 86.1875 C147.52498779 86.66227783 148.36247559 87.13705566 149.2253418 87.6262207 C156.20671746 91.72796445 161.34291951 96.1817336 164 104 C164.24723816 106.90361023 164.24723816 106.90361023 164.24291992 110.13549805 C164.24599655 111.34993088 164.24907318 112.56436371 164.25224304 113.81559753 C164.24146477 115.76892754 164.24146477 115.76892754 164.23046875 117.76171875 C164.22927574 119.11741594 164.22882404 120.47311396 164.2290802 121.82881165 C164.2275199 124.66237604 164.21926266 127.49581328 164.20581055 130.3293457 C164.18877258 133.964452 164.18499786 137.59941941 164.18575573 141.23456097 C164.18548417 144.03033274 164.18000602 146.82607405 164.17275429 149.62183571 C164.16802041 151.61496739 164.1662919 153.60810548 164.16459656 155.60124207 C164.15821671 156.80621841 164.15183685 158.01119476 164.14526367 159.25268555 C164.14145187 160.31682175 164.13764008 161.38095795 164.13371277 162.4773407 C164 165 164 165 163 167 C157.67756906 167.50074464 154.52270137 165.94969651 150.1875 163.125 C148.85611745 162.29193112 147.52406024 161.4599397 146.19140625 160.62890625 C145.50320801 160.19465332 144.81500977 159.76040039 144.10595703 159.31298828 C140.65297347 157.16017752 137.13856606 155.11437718 133.625 153.0625 C132.191296 152.22023972 130.75770294 151.37779057 129.32421875 150.53515625 C126.4543636 148.85108455 123.58159928 147.17210641 120.70703125 145.49609375 C113.61059878 141.35083748 106.57376964 137.13904451 99.625 132.75 C94.49205891 129.50996213 89.31773523 126.46642954 83.95703125 123.61328125 C74.01918855 118.19144633 64.36229211 112.23348481 54.66503906 106.39526367 C49.96099324 103.56651287 45.23448756 100.77745209 40.5 98 C35.1495649 94.86120684 29.81435259 91.69950771 24.5 88.5 C18.99164887 85.18714035 13.47158772 81.89470754 7.9375 78.625 C7.23496094 78.20798828 6.53242188 77.79097656 5.80859375 77.36132812 C4.48291449 76.57994218 3.14799162 75.81397273 1.80322266 75.06591797 C-0 74 -0 74 -2.79296875 71.796875 C-6.83186517 70.79330025 -7.66487948 71.56185705 -11.203125 73.6015625 C-13.23424321 74.91912657 -15.24908796 76.26200062 -17.25 77.625 C-19.41606791 79.042582 -21.58273929 80.45924229 -23.75 81.875 C-25.34714844 82.93460938 -25.34714844 82.93460938 -26.9765625 84.015625 C-31.00530525 86.65981275 -35.11621695 89.14979596 -39.25 91.625 C-46.61246994 96.07900531 -53.80887211 100.76751273 -60.99707031 105.49633789 C-66.17686584 108.88206296 -71.35641993 112.00601961 -76.90625 114.75390625 C-79.33465437 116.1991693 -81.08171645 117.93784518 -83 120 C-82.52506104 120.28496338 -82.05012207 120.56992676 -81.56079102 120.86352539 C-80.09366144 121.74380314 -78.62653992 122.62409432 -77.15942383 123.50439453 C-75.39759951 124.561456 -73.63571604 125.6184189 -71.8737793 126.67529297 C-66.81552202 129.70963575 -61.75843102 132.74589879 -56.703125 135.78515625 C-54.57297567 137.06520236 -52.44276713 138.34514994 -50.3125 139.625 C-49.249104 140.2641333 -48.18570801 140.9032666 -47.09008789 141.56176758 C-41.08382896 145.16663512 -35.05512581 148.72803168 -29 152.25 C-22.51459463 156.02563689 -16.22695761 160.06189099 -9.95117188 164.17456055 C-5.37801466 167.15508917 -0.74503868 169.87893731 4.0859375 172.42578125 C10.08901855 175.66873254 15.92170422 179.21773634 21.79150391 182.69433594 C23.91429118 183.9493289 26.04030891 185.19860143 28.16796875 186.4453125 C40.79443259 193.84492435 53.33902165 201.37935452 65.87109375 208.9375 C75.84443272 214.94593361 85.8679822 220.86098469 95.93212891 226.71606445 C104.48374209 231.69230712 113.00695198 236.71514763 121.51953125 241.7578125 C125.3242997 244.01142197 129.1348478 246.25487043 132.94921875 248.4921875 C133.93067871 249.0689624 134.91213867 249.6457373 135.92333984 250.23999023 C137.78313634 251.33270318 139.64405229 252.4235142 141.50634766 253.51196289 C162.1587664 265.66263238 162.1587664 265.66263238 165 276 C165.29282171 278.6926715 165.50709638 281.31276789 165.6328125 284.01171875 C165.67460129 284.7737561 165.71639008 285.53579346 165.75944519 286.32092285 C165.89086363 288.77606454 166.00905179 291.23158235 166.125 293.6875 C166.16636078 294.52125153 166.20772156 295.35500305 166.25033569 296.21401978 C168.31755269 337.94423341 168.31755269 337.94423341 160.1640625 347.9453125 C155.077197 352.7750801 148.9293067 356.30662822 143 360 C141.59301301 360.8933716 140.18676282 361.78790467 138.78125 362.68359375 C132.76668288 366.49921882 126.73637283 370.23752688 120.47265625 373.6328125 C108.54098061 380.23010551 96.92738248 387.43371097 85.24462891 394.45703125 C79.13824401 398.1255129 73.02059038 401.772586 66.875 405.375 C61.90276569 408.28977832 56.94045188 411.21912608 52 414.1875 C51.12202759 414.71500854 51.12202759 414.71500854 50.22631836 415.25317383 C47.19532342 417.0757097 44.16554113 418.90025194 41.13623047 420.72558594 C18.82841425 434.1636951 18.82841425 434.1636951 10.8125 438.8125 C9.80832031 439.39644531 8.80414063 439.98039062 7.76953125 440.58203125 C2.04378922 443.51354656 -3.58796368 445.27517224 -10 444 C-23.39384816 438.69535166 -35.70623276 430.41033083 -48 423 C-49.37998909 422.1715097 -50.76017529 421.34334757 -52.140625 420.515625 C-53.96284293 419.42262711 -55.78477712 418.32918129 -57.60546875 417.23364258 C-62.77973004 414.12215094 -67.98140658 411.05839096 -73.18847656 408.00219727 C-79.91582813 404.05337109 -86.62814967 400.07935391 -93.34057617 396.10522461 C-99.30609611 392.57824809 -105.29009979 389.08463117 -111.28417969 385.60644531 C-119.86350201 380.62691447 -128.37591884 375.58289992 -136.75268555 370.26928711 C-140.33581466 368.00623329 -143.95222326 365.87642335 -147.6875 363.875 C-169.63078814 352.10782887 -169.63078814 352.10782887 -173.05148315 343.28927612 C-174.04113448 339.85735346 -174.24136121 337.09894231 -174.22705078 333.53564453 C-174.22682419 331.64436325 -174.22682419 331.64436325 -174.22659302 329.71487427 C-174.21638217 328.35418537 -174.20595022 326.99349812 -174.1953125 325.6328125 C-174.19157824 324.22891441 -174.18873322 322.8250137 -174.18673706 321.42111206 C-174.17913304 317.74186903 -174.1595127 314.06278611 -174.1373291 310.38360596 C-174.11680071 306.62294683 -174.10772044 302.86226161 -174.09765625 299.1015625 C-174.07626343 291.73430233 -174.04216698 284.36717368 -174 277 C-166.55452622 277.86149667 -166.55452622 277.86149667 -163.125 279.96875 C-162.45847412 280.3699707 -161.79194824 280.77119141 -161.10522461 281.18457031 C-160.41050049 281.61866211 -159.71577637 282.05275391 -159 282.5 C-157.88153687 283.17820801 -157.88153687 283.17820801 -156.74047852 283.87011719 C-155.21091671 284.79854188 -153.68427779 285.73179958 -152.16064453 286.66992188 C-149.10045347 288.55375475 -146.01947645 290.40211454 -142.9375 292.25 C-142.35178223 292.60312256 -141.76606445 292.95624512 -141.16259766 293.32006836 C-135.10361308 296.96412606 -128.98773105 300.50960115 -122.875 304.0625 C-115.4873984 308.35670357 -108.1553911 312.70889569 -100.90234375 317.2265625 C-97.21582387 319.47916011 -93.46281842 321.60452368 -89.70263672 323.73120117 C-84.58682596 326.63737574 -79.53984865 329.65182463 -74.5 332.6875 C-67.49681813 336.90538596 -60.47867543 341.0958217 -53.4375 345.25 C-52.54595215 345.7761792 -51.6544043 346.3023584 -50.73583984 346.84448242 C-48.85078635 347.95693229 -46.96569392 349.06931619 -45.08056641 350.18164062 C-39.85668065 353.26513255 -34.63453931 356.3515602 -29.41433716 359.44128418 C-27.67176014 360.47233294 -25.92854018 361.50229481 -24.18530273 362.53222656 C-22.56603882 363.49080566 -22.56603882 363.49080566 -20.9140625 364.46875 C-19.38120605 365.37173828 -19.38120605 365.37173828 -17.81738281 366.29296875 C-15.32745524 367.80159731 -12.93116034 369.39683506 -10.5234375 371.03125 C-8.07215171 372.56769117 -7.30758901 373.00316636 -4.34375 372.97265625 C3.92736682 369.54014277 11.54838337 365.1553025 19.12109375 360.3984375 C23.99986978 357.35231813 28.97601552 354.47105761 33.9375 351.5625 C40.26778099 347.84547104 46.54591611 344.08449166 52.6875 340.0625 C57.51898373 336.90500705 62.41869023 334.04890532 67.51953125 331.3515625 C70.59491443 329.6758419 73.52102497 327.81354275 76.44140625 325.8828125 C78 325 78 325 80 325 C80 324.34 80 323.68 80 323 C79.28070313 322.73703125 78.56140625 322.4740625 77.8203125 322.203125 C74.92025615 320.96598185 72.50091082 319.49015583 69.875 317.75 C65.34758957 314.75007455 60.66386425 312.16385255 55.890625 309.58398438 C51.38714374 307.11619836 46.97545456 304.50029561 42.5625 301.875 C41.61729492 301.31441895 40.67208984 300.75383789 39.69824219 300.17626953 C27.08832923 292.6897907 14.50520362 285.16026283 2 277.5 C-15.99805763 266.47300487 -15.99805763 266.47300487 -34.25 255.875 C-40.03139529 252.60636662 -45.64377209 249.11545608 -51.25537109 245.56762695 C-55.73418527 242.75058856 -60.28544386 240.17040665 -64.9609375 237.69140625 C-69.80078998 234.99776084 -74.49299791 232.06275938 -79.19287109 229.13305664 C-83.15996022 226.67548532 -87.16217028 224.34130602 -91.26953125 222.125 C-97.51272037 218.75452375 -103.59725529 215.13776132 -109.6875 211.5 C-112.07343048 210.07940197 -114.46042695 208.66060165 -116.84765625 207.2421875 C-117.44628479 206.8863559 -118.04491333 206.53052429 -118.66168213 206.16390991 C-124.63084223 202.61899518 -130.62529121 199.1179314 -136.625 195.625 C-137.60734619 195.05209229 -138.58969238 194.47918457 -139.60180664 193.88891602 C-144.08287419 191.27637549 -148.56782079 188.67108719 -153.0625 186.08203125 C-154.58336135 185.20056917 -156.1041965 184.31906189 -157.625 183.4375 C-158.29354004 183.05609863 -158.96208008 182.67469727 -159.65087891 182.28173828 C-169.63751921 176.47363018 -169.63751921 176.47363018 -172.20703125 171.80859375 C-175.79309031 157.76512377 -175.08855008 142.84645676 -175.17422485 128.45370483 C-175.18298678 127.04045656 -175.19446609 125.62722219 -175.20883179 124.21401978 C-175.40650902 102.17447905 -175.40650902 102.17447905 -168.625 94.4296875 C-162.51412781 88.56434143 -154.94336926 84.71255239 -147.64892578 80.53515625 C-142.56159448 77.58684849 -137.53585614 74.53508722 -132.5 71.5 C-124.74573369 66.83689098 -116.97647978 62.20299814 -109.16870117 57.63012695 C-103.01888108 54.02347113 -96.90875301 50.35210248 -90.80053711 46.67553711 C-84.47224797 42.87104078 -78.11484981 39.11792811 -71.75 35.375 C-65.21067886 31.52840771 -58.7251065 27.61684722 -52.3125 23.5625 C-47.35782614 20.43525953 -42.3760455 17.45796369 -37.19921875 14.70703125 C-31.73483109 11.79135676 -26.32503434 8.77558245 -20.90332031 5.78149414 C-20.07026367 5.32250732 -19.23720703 4.86352051 -18.37890625 4.390625 C-17.6319751 3.97844727 -16.88504395 3.56626953 -16.11547852 3.14160156 C-10.40828542 0.0617591 -6.55159527 -1.17142189 0 0 Z " fill="#393939" transform="translate(260,19)"/>
<path d="M0 0 C11.75750577 4.48162103 22.42188778 11.77750457 33.078125 18.359375 C38.63611631 21.79000974 44.24388143 25.12862387 49.875 28.4375 C58.03697359 33.24398731 66.18354833 38.07534009 74.3125 42.9375 C75.3442334 43.55230225 76.3759668 44.16710449 77.43896484 44.80053711 C82.73508129 47.9732719 87.9424814 51.22497281 93.03930664 54.70996094 C95.73555717 56.48396016 98.54858562 57.99936139 101.3828125 59.5390625 C104.63101104 61.35223602 107.81562478 63.2654182 111 65.1875 C115.68577534 68.01442124 120.38100943 70.82256035 125.10229492 73.58984375 C127.21635705 74.82942028 129.32696797 76.07473691 131.4375 77.3203125 C134.71692676 79.25355482 138.01187136 81.15789766 141.3125 83.0546875 C143.10439169 84.09857216 144.89606222 85.14283656 146.6875 86.1875 C147.52498779 86.66227783 148.36247559 87.13705566 149.2253418 87.6262207 C156.20671746 91.72796445 161.34291951 96.1817336 164 104 C164.24723816 106.90361023 164.24723816 106.90361023 164.24291992 110.13549805 C164.24599655 111.34993088 164.24907318 112.56436371 164.25224304 113.81559753 C164.24146477 115.76892754 164.24146477 115.76892754 164.23046875 117.76171875 C164.22927574 119.11741594 164.22882404 120.47311396 164.2290802 121.82881165 C164.2275199 124.66237604 164.21926266 127.49581328 164.20581055 130.3293457 C164.18877258 133.964452 164.18499786 137.59941941 164.18575573 141.23456097 C164.18548417 144.03033274 164.18000602 146.82607405 164.17275429 149.62183571 C164.16802041 151.61496739 164.1662919 153.60810548 164.16459656 155.60124207 C164.15821671 156.80621841 164.15183685 158.01119476 164.14526367 159.25268555 C164.14145187 160.31682175 164.13764008 161.38095795 164.13371277 162.4773407 C164 165 164 165 163 167 C157.67756906 167.50074464 154.52270137 165.94969651 150.1875 163.125 C148.85611745 162.29193112 147.52406024 161.4599397 146.19140625 160.62890625 C145.50320801 160.19465332 144.81500977 159.76040039 144.10595703 159.31298828 C140.65297347 157.16017752 137.13856606 155.11437718 133.625 153.0625 C132.191296 152.22023972 130.75770294 151.37779057 129.32421875 150.53515625 C126.4543636 148.85108455 123.58159928 147.17210641 120.70703125 145.49609375 C113.61059878 141.35083748 106.57376964 137.13904451 99.625 132.75 C94.49205891 129.50996213 89.31773523 126.46642954 83.95703125 123.61328125 C74.01918855 118.19144633 64.36229211 112.23348481 54.66503906 106.39526367 C49.96099324 103.56651287 45.23448756 100.77745209 40.5 98 C35.1495649 94.86120684 29.81435259 91.69950771 24.5 88.5 C18.99164887 85.18714035 13.47158772 81.89470754 7.9375 78.625 C7.23496094 78.20798828 6.53242188 77.79097656 5.80859375 77.36132812 C4.48291449 76.57994218 3.14799162 75.81397273 1.80322266 75.06591797 C-0 74 -0 74 -2.79296875 71.796875 C-6.83186517 70.79330025 -7.66487948 71.56185705 -11.203125 73.6015625 C-13.23424321 74.91912657 -15.24908796 76.26200062 -17.25 77.625 C-19.41606791 79.042582 -21.58273929 80.45924229 -23.75 81.875 C-25.34714844 82.93460938 -25.34714844 82.93460938 -26.9765625 84.015625 C-31.00530525 86.65981275 -35.11621695 89.14979596 -39.25 91.625 C-46.61246994 96.07900531 -53.80887211 100.76751273 -60.99707031 105.49633789 C-66.17686584 108.88206296 -71.35641993 112.00601961 -76.90625 114.75390625 C-79.33465437 116.1991693 -81.08171645 117.93784518 -83 120 C-82.52506104 120.28496338 -82.05012207 120.56992676 -81.56079102 120.86352539 C-80.09366144 121.74380314 -78.62653992 122.62409432 -77.15942383 123.50439453 C-75.39759951 124.561456 -73.63571604 125.6184189 -71.8737793 126.67529297 C-66.81552202 129.70963575 -61.75843102 132.74589879 -56.703125 135.78515625 C-54.57298986 137.06522598 -52.4427813 138.34517354 -50.3125 139.625 C-49.2512793 140.26268311 -48.19005859 140.90036621 -47.09667969 141.55737305 C-41.71902194 144.78438328 -36.33034486 147.9895905 -30.91308594 151.1496582 C-24.90465727 154.65457492 -18.94022955 158.2166866 -13.0625 161.9375 C-12.47637939 162.30343262 -11.89025879 162.66936523 -11.28637695 163.04638672 C-8.45236713 164.86481608 -6.90268404 166.14597394 -5 169 C-4.80981207 172.05519074 -4.73754852 175.01851161 -4.75708008 178.07373047 C-4.75518173 179.00247986 -4.75328339 179.93122925 -4.75132751 180.88812256 C-4.7476168 183.96456287 -4.75832997 187.04076809 -4.76953125 190.1171875 C-4.77072322 192.2532651 -4.77117618 194.38934323 -4.7709198 196.52542114 C-4.77248529 201.00607578 -4.78077871 205.4866506 -4.79418945 209.96728516 C-4.81115879 215.7096262 -4.81500437 221.4518793 -4.81424427 227.19424248 C-4.81451632 231.60715575 -4.82000356 236.02004982 -4.82724571 240.4329567 C-4.83042746 242.55004862 -4.83239864 244.66714272 -4.83313942 246.78423691 C-4.83530935 249.74535571 -4.84406844 252.70638165 -4.85473633 255.66748047 C-4.85428314 256.54246185 -4.85382996 257.41744324 -4.85336304 258.31893921 C-4.87454874 262.34397175 -4.99407284 266.07252871 -6 270 C-11.73344338 268.82198103 -15.98683618 267.11494492 -20.8125 263.75 C-22.0397301 262.92809061 -23.2689164 262.10909493 -24.5 261.29296875 C-25.09683594 260.8964209 -25.69367188 260.49987305 -26.30859375 260.09130859 C-29.43548699 258.07381252 -32.7250682 256.37494561 -36.0078125 254.62890625 C-39.61622722 252.66453427 -43.15160691 250.59136909 -46.6875 248.5 C-53.77695282 244.30779989 -60.8832696 240.14574416 -68 236 C-79.75767665 229.14577364 -91.49910957 222.26582377 -103.203125 215.3203125 C-105.48955009 213.96348559 -107.77599063 212.60668486 -110.0625 211.25 C-110.63833832 210.90831787 -111.21417664 210.56663574 -111.8074646 210.21459961 C-120.06099246 205.31871011 -128.33299313 200.4555087 -136.625 195.625 C-137.60782959 195.05177002 -138.59065918 194.47854004 -139.60327148 193.88793945 C-144.08391492 191.27583574 -148.56832874 188.67079459 -153.0625 186.08203125 C-154.58336135 185.20056917 -156.1041965 184.31906189 -157.625 183.4375 C-158.29354004 183.05609863 -158.96208008 182.67469727 -159.65087891 182.28173828 C-169.63751921 176.47363018 -169.63751921 176.47363018 -172.20703125 171.80859375 C-175.79309031 157.76512377 -175.08855008 142.84645676 -175.17422485 128.45370483 C-175.18298678 127.04045656 -175.19446609 125.62722219 -175.20883179 124.21401978 C-175.40650902 102.17447905 -175.40650902 102.17447905 -168.625 94.4296875 C-162.51412781 88.56434143 -154.94336926 84.71255239 -147.64892578 80.53515625 C-142.56159448 77.58684849 -137.53585614 74.53508722 -132.5 71.5 C-124.74573369 66.83689098 -116.97647978 62.20299814 -109.16870117 57.63012695 C-103.01888108 54.02347113 -96.90875301 50.35210248 -90.80053711 46.67553711 C-84.47224797 42.87104078 -78.11484981 39.11792811 -71.75 35.375 C-65.21067886 31.52840771 -58.7251065 27.61684722 -52.3125 23.5625 C-47.35782614 20.43525953 -42.3760455 17.45796369 -37.19921875 14.70703125 C-31.73483109 11.79135676 -26.32503434 8.77558245 -20.90332031 5.78149414 C-20.07026367 5.32250732 -19.23720703 4.86352051 -18.37890625 4.390625 C-17.6319751 3.97844727 -16.88504395 3.56626953 -16.11547852 3.14160156 C-10.40828542 0.0617591 -6.55159527 -1.17142189 0 0 Z " fill="#2D2D2D" transform="translate(260,19)"/>
<path d="M0 0 C0.74765625 0.2784375 1.4953125 0.556875 2.265625 0.84375 C3.420625 1.194375 4.575625 1.545 5.765625 1.90625 C10.54974249 3.77600601 14.72588981 6.47714759 19.05859375 9.2109375 C24.49087149 12.63483621 30.00744641 15.91893844 35.515625 19.21875 C36.60456055 19.87214355 37.69349609 20.52553711 38.81542969 21.19873047 C44.31648648 24.49525314 49.82852797 27.7705267 55.36791992 31.00219727 C61.37101719 34.50453115 67.33038396 38.0635945 73.203125 41.78125 C73.78924561 42.14718262 74.37536621 42.51311523 74.97924805 42.89013672 C77.81325787 44.70856608 79.36294096 45.98972394 81.265625 48.84375 C81.45581293 51.89894074 81.52807648 54.86226161 81.50854492 57.91748047 C81.51044327 58.84622986 81.51234161 59.77497925 81.51429749 60.73187256 C81.5180082 63.80831287 81.50729503 66.88451809 81.49609375 69.9609375 C81.49490178 72.0970151 81.49444882 74.23309323 81.4947052 76.36917114 C81.49313971 80.84982578 81.48484629 85.3304006 81.47143555 89.81103516 C81.45446621 95.5533762 81.45062063 101.2956293 81.45138073 107.03799248 C81.45110868 111.45090575 81.44562144 115.86379982 81.43837929 120.2767067 C81.43519754 122.39379862 81.43322636 124.51089272 81.43248558 126.62798691 C81.43031565 129.58910571 81.42155656 132.55013165 81.41088867 135.51123047 C81.41134186 136.38621185 81.41179504 137.26119324 81.41226196 138.16268921 C81.39107626 142.18772175 81.27155216 145.91627871 80.265625 149.84375 C74.53218162 148.66573103 70.27878882 146.95869492 65.453125 143.59375 C64.2258949 142.77184061 62.9967086 141.95284493 61.765625 141.13671875 C61.16878906 140.7401709 60.57195312 140.34362305 59.95703125 139.93505859 C56.83013801 137.91756252 53.5405568 136.21869561 50.2578125 134.47265625 C46.64939778 132.50828427 43.11401809 130.43511909 39.578125 128.34375 C32.48867218 124.15154989 25.3823554 119.98949416 18.265625 115.84375 C6.50794835 108.98952364 -5.23348457 102.10957377 -16.9375 95.1640625 C-18.64255069 94.15228094 -20.34760172 93.14049996 -22.05267334 92.12875366 C-23.2127495 91.44036819 -24.37278389 90.75191231 -25.53277588 90.06338501 C-34.94952649 84.47530132 -44.39507986 78.93836371 -53.86938477 73.44824219 C-55.67027346 72.40237122 -57.46840622 71.35173415 -59.26318359 70.29541016 C-60.88310313 69.34381546 -62.51087952 68.40544376 -64.14697266 67.48193359 C-64.87319824 67.0586377 -65.59942383 66.6353418 -66.34765625 66.19921875 C-66.98098877 65.83852295 -67.61432129 65.47782715 -68.2668457 65.10620117 C-70.13706798 63.49733086 -70.22677482 62.20531233 -70.734375 59.84375 C-72.71873545 58.8128744 -72.71873545 58.8128744 -75.109375 58.28125 C-78.53056878 57.38416173 -80.41022023 56.55026572 -82.734375 53.84375 C-81.35663681 50.5393757 -80.02600358 49.06636373 -76.98046875 47.21484375 C-76.21782715 46.74336914 -75.45518555 46.27189453 -74.66943359 45.78613281 C-73.43314209 45.04121582 -73.43314209 45.04121582 -72.171875 44.28125 C-70.42262598 43.20271623 -68.67393792 42.12327217 -66.92578125 41.04296875 C-65.60731201 40.23351807 -65.60731201 40.23351807 -64.26220703 39.40771484 C-60.67640097 37.18918349 -57.1409584 34.89725908 -53.609375 32.59375 C-45.43313475 27.28120431 -37.22455591 22.01955926 -28.99853516 16.78442383 C-24.13948694 13.6876649 -19.3007928 10.5731328 -14.53125 7.33984375 C-13.36625977 6.55770508 -13.36625977 6.55770508 -12.17773438 5.75976562 C-10.75909616 4.80347967 -9.34828264 3.83543647 -7.94726562 2.85351562 C-3.40135666 -0.19436324 -3.40135666 -0.19436324 0 0 Z " fill="#EFEEEF" transform="translate(173.734375,139.15625)"/>
<path d="M0 0 C10.53805578 0.69765695 10.53805578 0.69765695 15.11328125 3.44140625 C15.96140381 3.93825928 16.80952637 4.4351123 17.68334961 4.94702148 C18.55096924 5.48012939 19.41858887 6.0132373 20.3125 6.5625 C21.23619385 7.11043213 22.1598877 7.65836426 23.11157227 8.22290039 C25.75314143 9.79627129 28.37898419 11.39268348 31 13 C31.9266748 13.56412598 31.9266748 13.56412598 32.87207031 14.13964844 C35.41749537 15.69045214 37.95161627 17.25824519 40.48046875 18.8359375 C45.02575766 21.65269837 49.64232037 24.34952931 54.25 27.0625 C62.61925672 31.99571107 70.97503165 36.9507244 79.3125 41.9375 C80.8588916 42.85897827 80.8588916 42.85897827 82.43652344 43.79907227 C87.73345538 46.97229963 92.9416945 50.22443476 98.03930664 53.70996094 C100.73555717 55.48396016 103.54858562 56.99936139 106.3828125 58.5390625 C109.63101104 60.35223602 112.81562478 62.2654182 116 64.1875 C120.68577534 67.01442124 125.38100943 69.82256035 130.10229492 72.58984375 C132.21635705 73.82942028 134.32696797 75.07473691 136.4375 76.3203125 C139.71692676 78.25355482 143.01187136 80.15789766 146.3125 82.0546875 C148.10439169 83.09857216 149.89606222 84.14283656 151.6875 85.1875 C152.94373169 85.89966675 152.94373169 85.89966675 154.2253418 86.6262207 C161.20671746 90.72796445 166.34291951 95.1817336 169 103 C169.24723816 105.90361023 169.24723816 105.90361023 169.24291992 109.13549805 C169.24599655 110.34993088 169.24907318 111.56436371 169.25224304 112.81559753 C169.24146477 114.76892754 169.24146477 114.76892754 169.23046875 116.76171875 C169.22927574 118.11741594 169.22882404 119.47311396 169.2290802 120.82881165 C169.2275199 123.66237604 169.21926266 126.49581328 169.20581055 129.3293457 C169.18877258 132.964452 169.18499786 136.59941941 169.18575573 140.23456097 C169.18548417 143.03033274 169.18000602 145.82607405 169.17275429 148.62183571 C169.16802041 150.61496739 169.1662919 152.60810548 169.16459656 154.60124207 C169.15821671 155.80621841 169.15183685 157.01119476 169.14526367 158.25268555 C169.14145187 159.31682175 169.13764008 160.38095795 169.13371277 161.4773407 C169 164 169 164 168 166 C162.67756906 166.50074464 159.52270137 164.94969651 155.1875 162.125 C153.85611745 161.29193112 152.52406024 160.4599397 151.19140625 159.62890625 C150.50320801 159.19465332 149.81500977 158.76040039 149.10595703 158.31298828 C145.65297347 156.16017752 142.13856606 154.11437718 138.625 152.0625 C137.191296 151.22023972 135.75770294 150.37779057 134.32421875 149.53515625 C131.4543636 147.85108455 128.58159928 146.17210641 125.70703125 144.49609375 C118.61059878 140.35083748 111.57376964 136.13904451 104.625 131.75 C99.49205891 128.50996213 94.31773523 125.46642954 88.95703125 122.61328125 C79.01918855 117.19144633 69.36229211 111.23348481 59.66503906 105.39526367 C54.96099324 102.56651287 50.23448756 99.77745209 45.5 97 C39.54006363 93.50364744 33.59919155 89.97827301 27.68603516 86.40332031 C24.29889295 84.36039664 20.89340956 82.35658749 17.4609375 80.390625 C16.3152832 79.73030273 16.3152832 79.73030273 15.14648438 79.05664062 C13.67500396 78.21019144 12.1999378 77.36993325 10.72070312 76.53710938 C10.04716797 76.14845703 9.37363281 75.75980469 8.6796875 75.359375 C8.08913574 75.02389648 7.49858398 74.68841797 6.89013672 74.34277344 C3.08841014 71.64198602 0.29195238 69.54543982 -0.60127258 64.81718445 C-0.59016953 63.62027481 -0.57906647 62.42336517 -0.56762695 61.19018555 C-0.56835709 60.52621262 -0.56908722 59.86223969 -0.56983948 59.17814636 C-0.56637286 56.99682148 -0.52756313 54.81766759 -0.48828125 52.63671875 C-0.47894965 51.11929999 -0.47183517 49.60186612 -0.46684265 48.08442688 C-0.44779966 44.10067775 -0.39872383 40.11784774 -0.34332275 36.13446045 C-0.29207098 32.06567823 -0.26931606 27.99674672 -0.24414062 23.92773438 C-0.19060098 15.95140227 -0.10532267 7.97581564 0 0 Z " fill="#EBEAEA" transform="translate(255,20)"/>
<path d="M0 0 C7.44547378 0.86149667 7.44547378 0.86149667 10.875 2.96875 C11.54152588 3.3699707 12.20805176 3.77119141 12.89477539 4.18457031 C13.58949951 4.61866211 14.28422363 5.05275391 15 5.5 C15.74564209 5.95213867 16.49128418 6.40427734 17.25952148 6.87011719 C18.78908329 7.79854188 20.31572221 8.73179958 21.83935547 9.66992188 C24.89954653 11.55375475 27.98052355 13.40211454 31.0625 15.25 C31.64821777 15.60312256 32.23393555 15.95624512 32.83740234 16.32006836 C38.89638692 19.96412606 45.01226895 23.50960115 51.125 27.0625 C58.5126016 31.35670357 65.8446089 35.70889569 73.09765625 40.2265625 C76.78417613 42.47916011 80.53718158 44.60452368 84.29736328 46.73120117 C89.41317404 49.63737574 94.46015135 52.65182463 99.5 55.6875 C106.50318187 59.90538596 113.52132457 64.0958217 120.5625 68.25 C121.45404785 68.7761792 122.3455957 69.3023584 123.26416016 69.84448242 C125.14921365 70.95693229 127.03430608 72.06931619 128.91943359 73.18164062 C134.14331935 76.26513255 139.36546069 79.3515602 144.58566284 82.44128418 C146.32823986 83.47233294 148.07145982 84.50229481 149.81469727 85.53222656 C152.88096519 87.34740957 155.94238755 89.17028086 159 91 C159.8343457 91.49757813 160.66869141 91.99515625 161.52832031 92.5078125 C166.88013521 95.76027042 166.88013521 95.76027042 168 98 C168.09175034 100.12417 168.11750694 102.25129455 168.11352539 104.37744141 C168.11367142 105.03122269 168.11381744 105.68500397 168.1139679 106.3585968 C168.11327036 108.52295227 168.1054854 110.68722204 168.09765625 112.8515625 C168.09579151 114.35086012 168.09436787 115.85015834 168.09336853 117.34945679 C168.08954779 121.29831622 168.07972128 125.24713896 168.06866455 129.19598389 C168.05844091 133.22440087 168.05386887 137.25282378 168.04882812 141.28125 C168.03809862 149.18751685 168.0210275 157.09375386 168 165 C162.54402671 165.27241972 158.44654329 165.33946421 153.6171875 162.47265625 C152.68575928 161.93253906 151.75433105 161.39242187 150.79467773 160.8359375 C149.34943726 159.95808594 149.34943726 159.95808594 147.875 159.0625 C146.85801025 158.46566406 145.84102051 157.86882812 144.79321289 157.25390625 C141.85050925 155.52128417 138.9237756 153.76432025 136 152 C134.64779695 151.19550163 133.29502871 150.39195156 131.94140625 149.58984375 C129.59600936 148.1946596 127.25851035 146.78734791 124.92578125 145.37109375 C120.01577857 142.39513893 115.06921509 139.48113013 110.125 136.5625 C109.18543457 136.00739746 108.24586914 135.45229492 107.27783203 134.88037109 C102.92308491 132.30913301 98.56541877 129.74315278 94.19921875 127.19140625 C87.28174492 123.14589235 80.44108753 119.04155585 73.71069336 114.68847656 C71.13678463 113.08520242 68.53289029 111.62487974 65.859375 110.1953125 C60.20245093 107.13300311 54.65470209 103.91036591 49.125 100.625 C48.16682373 100.05773193 47.20864746 99.49046387 46.22143555 98.90600586 C40.0427679 95.23952653 33.91904623 91.49699419 27.8203125 87.69921875 C24.98746003 85.99244475 22.10940061 84.42352771 19.1875 82.875 C11.76699535 78.88350406 4.13708645 74.40914207 0.91262817 66.24777222 C-0.04425736 62.8425012 -0.24122852 60.06590238 -0.22705078 56.53564453 C-0.22682419 54.64436325 -0.22682419 54.64436325 -0.22659302 52.71487427 C-0.21638217 51.35418537 -0.20595022 49.99349812 -0.1953125 48.6328125 C-0.19157824 47.22891441 -0.18873322 45.8250137 -0.18673706 44.42111206 C-0.17913304 40.74186903 -0.1595127 37.06278611 -0.1373291 33.38360596 C-0.11680071 29.62294683 -0.10772044 25.86226161 -0.09765625 22.1015625 C-0.07626343 14.73430233 -0.04216698 7.36717368 0 0 Z " fill="#EBEAEB" transform="translate(86,296)"/>
<path d="M0 0 C1.30324219 -0.00773437 1.30324219 -0.00773437 2.6328125 -0.015625 C4.875 0.25 4.875 0.25 6.875 2.25 C4.565 1.92 2.255 1.59 -0.125 1.25 C-0.125 23.69 -0.125 46.13 -0.125 69.25 C-0.455 69.25 -0.785 69.25 -1.125 69.25 C-1.455 48.79 -1.785 28.33 -2.125 7.25 C-4.105 8.9 -6.085 10.55 -8.125 12.25 C-10.49091183 13.28454078 -12.58115391 13.69035386 -15.125 14.25 C-15.125 14.91 -15.125 15.57 -15.125 16.25 C-16.41413487 16.92154933 -17.70640204 17.58708859 -19 18.25 C-19.71929687 18.62125 -20.43859375 18.9925 -21.1796875 19.375 C-23.125 20.25 -23.125 20.25 -25.125 20.25 C-25.62 21.735 -25.62 21.735 -26.125 23.25 C-28.40843598 24.19850418 -30.70576728 24.77146978 -33.09375 25.40625 C-33.7640625 25.6846875 -34.434375 25.963125 -35.125 26.25 C-35.62 27.735 -35.62 27.735 -36.125 29.25 C-38.36539631 30.5666727 -40.53319044 31.71033255 -42.875 32.8125 C-43.49632812 33.11607422 -44.11765625 33.41964844 -44.7578125 33.73242188 C-48.16227804 35.38078652 -51.59369147 36.89543318 -55.125 38.25 C-55.125 38.91 -55.125 39.57 -55.125 40.25 C-56.23875 40.78625 -57.3525 41.3225 -58.5 41.875 C-62.83512429 44.02707956 -66.9220285 46.51315714 -71.0234375 49.078125 C-73.125 50.25 -73.125 50.25 -75.125 50.25 C-75.125 50.91 -75.125 51.57 -75.125 52.25 C-77.105 52.91 -79.085 53.57 -81.125 54.25 C-83.13479646 52.07941983 -84.11213008 50.89778598 -84.171875 47.890625 C-82.59225346 43.90620649 -79.42241086 42.62241222 -75.8125 40.6875 C-74.2531208 39.81259639 -72.69456002 38.93623286 -71.13671875 38.05859375 C-69.90574463 37.37385986 -69.90574463 37.37385986 -68.64990234 36.67529297 C-64.42185949 34.2885869 -60.27820135 31.76391759 -56.125 29.25 C-40.62822917 19.93504971 -25.08097358 10.76499448 -9.125 2.25 C-8.43075928 1.87907227 -7.73651855 1.50814453 -7.02124023 1.12597656 C-4.59078119 0.00321526 -2.66650299 -0.01591942 0 0 Z " fill="#4D4D4D" transform="translate(255.125,18.75)"/>
<path d="M0 0 C0.66 0.33 1.32 0.66 2 1 C2.02316504 13.43048807 2.04093636 25.860971 2.05181217 38.29147625 C2.05703187 44.0633845 2.064113 49.83527798 2.07543945 55.60717773 C2.0863007 61.17683368 2.09228373 66.74647541 2.09487724 72.31614113 C2.09672564 74.44161007 2.10033504 76.56707823 2.10573006 78.69254112 C2.11298339 81.66833556 2.11398912 84.6440712 2.11352539 87.61987305 C2.11712067 88.49956757 2.12071594 89.37926208 2.12442017 90.28561401 C2.11760428 94.32473908 2.01502498 98.05908375 1 102 C-7.71428571 100.14285714 -7.71428571 100.14285714 -10 97 C-6.535 96.505 -6.535 96.505 -3 96 C-3.99 96.495 -3.99 96.495 -5 97 C-5 97.66 -5 98.32 -5 99 C-3.02 98.505 -3.02 98.505 -1 98 C-0.67 65.66 -0.34 33.32 0 0 Z " fill="#B9B8B8" transform="translate(253,187)"/>
<path d="M0 0 C-22.79274823 14.29262605 -22.79274823 14.29262605 -33.25 20.625 C-39.73644506 24.55394088 -46.09866724 28.65006268 -52.4375 32.8125 C-60.41654648 38.04789305 -68.45410437 42.74647468 -77 47 C-75.85626867 43.568806 -75.37040384 43.33106337 -72.38671875 41.58203125 C-71.63914307 41.13625732 -70.89156738 40.6904834 -70.12133789 40.23120117 C-69.31817139 39.76302979 -68.51500488 39.2948584 -67.6875 38.8125 C-66.03264877 37.82754324 -64.37900389 36.84055688 -62.7265625 35.8515625 C-61.91606445 35.36719727 -61.10556641 34.88283203 -60.27050781 34.38378906 C-57.30049314 32.5736769 -54.43419347 30.64995016 -51.5625 28.6875 C-47.02365827 25.6113832 -42.37553588 22.94102193 -37.53515625 20.37109375 C-32.71186025 17.76250069 -28.1421301 14.78962549 -23.625 11.6875 C-21 10 -21 10 -19 10 C-19 9.34 -19 8.68 -19 8 C-18.21625 7.62875 -17.4325 7.2575 -16.625 6.875 C-12.65504275 4.92318331 -8.98305834 2.50519893 -5.26953125 0.109375 C-3 -1 -3 -1 0 0 Z " fill="#111111" transform="translate(254,90)"/>
<path d="M0 0 C0.99 0.495 0.99 0.495 2 1 C-9.6391329 8.38701415 -21.44767212 15.4581733 -33.33740234 22.43359375 C-35.8404312 23.90612567 -38.33741463 25.38827268 -40.83203125 26.875 C-58.43821577 37.35296631 -58.43821577 37.35296631 -63 39 C-63.66 38.67 -64.32 38.34 -65 38 C-64.34 36.35 -63.68 34.7 -63 33 C-62.34 33.33 -61.68 33.66 -61 34 C-61.33 34.66 -61.66 35.32 -62 36 C-51.28651872 29.90730898 -40.58982971 23.79160371 -29.98046875 17.51904297 C-24.41204236 14.23042404 -18.80300125 11.01884211 -13.17578125 7.83203125 C-9.35346247 5.62702816 -5.61147531 3.30532781 -1.890625 0.93359375 C-1.26671875 0.62550781 -0.6428125 0.31742187 0 0 Z " fill="#1A1A19" transform="translate(325,423)"/>
<path d="M0 0 C0.66 0.33 1.32 0.66 2 1 C-14.60819577 11.89957535 -14.60819577 11.89957535 -20 14.8125 C-20.66 15.17859375 -21.32 15.5446875 -22 15.921875 C-23.48034778 16.71987497 -24.98461663 17.47384675 -26.5 18.203125 C-29.11383208 19.62439619 -31.01003868 20.77957545 -33 23 C-34.03925431 27.0380976 -34.16801213 30.84674024 -34 35 C-34.33 35 -34.66 35 -35 35 C-35 30.71 -35 26.42 -35 22 C-35.66 21.67 -36.32 21.34 -37 21 C-35.92685547 20.48953125 -35.92685547 20.48953125 -34.83203125 19.96875 C-26.8972463 16.10913921 -19.47587678 11.67354213 -12 7 C-9.78036946 5.62851065 -7.55032814 4.27966216 -5.3125 2.9375 C-4.33925781 2.34839844 -3.36601562 1.75929688 -2.36328125 1.15234375 C-1.58339844 0.77207031 -0.80351562 0.39179688 0 0 Z " fill="#1A1A1A" transform="translate(295,370)"/>
<path d="M0 0 C0.66 0.33 1.32 0.66 2 1 C-2.61299799 4.99793159 -7.75349789 7.93067349 -13 11 C-13.69222656 11.43183594 -14.38445312 11.86367188 -15.09765625 12.30859375 C-16.68657692 13.28353658 -18.33945587 14.15278361 -20 15 C-20.99 14.67 -21.98 14.34 -23 14 C-20.10437383 12.22882776 -17.2084621 10.45812293 -14.3125 8.6875 C-13.49587891 8.18798828 -12.67925781 7.68847656 -11.83789062 7.17382812 C-10.25751052 6.20768482 -8.67569116 5.24389099 -7.09228516 4.28271484 C-5.39337753 3.24116751 -3.71484777 2.16643362 -2.04296875 1.08203125 C-1.03169922 0.54642578 -1.03169922 0.54642578 0 0 Z " fill="#191919" transform="translate(323,353)"/>
<path d="M0 0 C0.33 0.66 0.66 1.32 1 2 C1.66 2.33 2.32 2.66 3 3 C-11.85070087 14.12390902 -11.85070087 14.12390902 -18 17 C-18.66 16.67 -19.32 16.34 -20 16 C-3.12391931 4 -3.12391931 4 0 4 C0 2.68 0 1.36 0 0 Z " fill="#1A1A1A" transform="translate(416,365)"/>
<path d="M0 0 C0.33 0 0.66 0 1 0 C1 6.6 1 13.2 1 20 C-8 17.75 -8 17.75 -10 15 C-6.535 14.505 -6.535 14.505 -3 14 C-3.99 14.495 -3.99 14.495 -5 15 C-5 15.66 -5 16.32 -5 17 C-3.68 16.67 -2.36 16.34 -1 16 C-0.67 10.72 -0.34 5.44 0 0 Z " fill="#E7E7E7" transform="translate(253,269)"/>
<path d="M0 0 C1.77007714 -0.08114106 3.54122098 -0.13925505 5.3125 -0.1875 C6.29863281 -0.22230469 7.28476563 -0.25710937 8.30078125 -0.29296875 C11 0 11 0 12.85546875 1.51171875 C13.23316406 2.00285156 13.61085937 2.49398437 14 3 C13.01 3.99 12.02 4.98 11 6 C6.49197399 4.74194623 3.5087188 3.09592835 0 0 Z " fill="#B0AEAF" transform="translate(185,250)"/>
<path d="M0 0 C0.99 -0.33 1.98 -0.66 3 -1 C3.625 0.8125 3.625 0.8125 4 3 C3.01 4.485 3.01 4.485 2 6 C-1.59007126 4.66654496 -4.79570907 3.1056769 -8 1 C-8 0.67 -8 0.34 -8 0 C-4.71303767 -0.79953138 -3.28976808 -1.09658936 0 0 Z " fill="#B3B2B3" transform="translate(139,218)"/>
<path d="M0 0 C0.66 0.33 1.32 0.66 2 1 C-3.39918083 5.47360697 -9.05403328 9.51157856 -16 11 C-13.27587303 7.91460888 -9.90811219 5.88811092 -6.4375 3.75 C-5.84775391 3.37359375 -5.25800781 2.9971875 -4.65039062 2.609375 C-3.13894996 1.6739669 -1.57228969 0.82906354 0 0 Z " fill="#434343" transform="translate(130,98)"/>
<path d="M0 0 C0.66 0.33 1.32 0.66 2 1 C-6.261959 7.70387244 -6.261959 7.70387244 -11 8 C-8.83385197 5.69125289 -6.60793392 3.94709819 -3.9375 2.25 C-2.89916016 1.57710938 -2.89916016 1.57710938 -1.83984375 0.890625 C-1.23269531 0.59671875 -0.62554687 0.3028125 0 0 Z " fill="#161616" transform="translate(336,345)"/>
<path d="M0 0 C2.64 0 5.28 0 8 0 C8.144375 0.61875 8.28875 1.2375 8.4375 1.875 C8.93152225 4.03258322 8.93152225 4.03258322 10 6 C5.56909529 4.79157144 3.01887244 3.48331435 0 0 Z " fill="#878686" transform="translate(172,417)"/>
<path d="M0 0 C0.66 0.33 1.32 0.66 2 1 C1.67 1.66 1.34 2.32 1 3 C1.66 3 2.32 3 3 3 C3 3.66 3 4.32 3 5 C3.99 5.33 4.98 5.66 6 6 C5.01 6.495 5.01 6.495 4 7 C2.0546875 6.00390625 2.0546875 6.00390625 -0.125 4.5625 C-0.84945312 4.08941406 -1.57390625 3.61632812 -2.3203125 3.12890625 C-2.87460938 2.75636719 -3.42890625 2.38382813 -4 2 C-2.125 0.9375 -2.125 0.9375 0 0 Z " fill="#676667" transform="translate(113,204)"/>
<path d="M0 0 C0 3.77910478 -0.99703962 4.46106101 -3.5 7.1875 C-4.47453125 8.26064453 -4.47453125 8.26064453 -5.46875 9.35546875 C-5.9740625 9.89816406 -6.479375 10.44085938 -7 11 C-7 7.33815476 -6.080358 5.97194 -4 3 C-1.8125 1.1875 -1.8125 1.1875 0 0 Z " fill="#404040" transform="translate(103,115)"/>
<path d="M0 0 C3.57104439 1.87949705 5.54744301 3.17053157 7 7 C3.40608886 5.66511872 0.24509304 4.03977277 -3 2 C-2.01 1.34 -1.02 0.68 0 0 Z " fill="#737373" transform="translate(163,234)"/>
<path d="M0 0 C-0.78375 0.61875 -1.5675 1.2375 -2.375 1.875 C-4.96837647 3.89858661 -4.96837647 3.89858661 -7 6 C-7.66 6 -8.32 6 -9 6 C-7.01260984 0.46369883 -5.82303895 -0.15323787 0 0 Z " fill="#474747" transform="translate(115,101)"/>
<path d="M0 0 C3.0831351 1.19899698 6.06279492 2.47700477 9 4 C9 4.66 9 5.32 9 6 C7.35 6.33 5.7 6.66 4 7 C4.66 6.67 5.32 6.34 6 6 C6 5.34 6 4.68 6 4 C5.195625 3.71125 4.39125 3.4225 3.5625 3.125 C1 2 1 2 0 0 Z " fill="#171717" transform="translate(334,338)"/>
<path d="M0 0 C2.1385485 2.1385485 2.42655063 3.13275314 3 6 C-0.37503669 4.8141763 -2.64722731 3.72426311 -5 1 C-2.625 0.375 -2.625 0.375 0 0 Z " fill="#838182" transform="translate(211,261)"/>
<path d="M0 0 C3.59391114 1.33488128 6.75490696 2.96022723 10 5 C7.45297384 6.27351308 6.5717055 5.80191925 3.875 5.0625 C3.15054687 4.86785156 2.42609375 4.67320313 1.6796875 4.47265625 C1.12539063 4.31667969 0.57109375 4.16070312 0 4 C0 2.68 0 1.36 0 0 Z " fill="#858585" transform="translate(349,72)"/>
<path d="M0 0 C1.32 0 2.64 0 4 0 C3.67 0.99 3.34 1.98 3 3 C3.66 3.66 4.32 4.32 5 5 C3.35 4.67 1.7 4.34 0 4 C0 2.68 0 1.36 0 0 Z " fill="#F4F2F3" transform="translate(180,417)"/>
<path d="M0 0 C0.598125 0.20625 1.19625 0.4125 1.8125 0.625 C-0.58259338 3.52432357 -2.49995243 4.12668276 -6.1875 4.625 C-5.03076352 1.15479057 -3.91311293 -0.67081936 0 0 Z " fill="#444444" transform="translate(157.1875,74.375)"/>
<path d="M0 0 C2.02045442 0.60183749 4.02111039 1.27306096 6 2 C6.33 2.66 6.66 3.32 7 4 C4.69 4 2.38 4 0 4 C0 2.68 0 1.36 0 0 Z " fill="#9B9B9B" transform="translate(96,300)"/>
<path d="M0 0 C-0.66 0 -1.32 0 -2 0 C-2 0.66 -2 1.32 -2 2 C-1.34 2 -0.68 2 0 2 C0 2.66 0 3.32 0 4 C-2.02045442 3.39816251 -4.02111039 2.72693904 -6 2 C-6.33 1.34 -6.66 0.68 -7 0 C-3.98968256 -0.93423645 -3.13349732 -1.04449911 0 0 Z " fill="#8A8A8A" transform="translate(250,284)"/>
<path d="M0 0 C-0.75 1.9375 -0.75 1.9375 -2 4 C-4 4.8125 -4 4.8125 -6 5 C-6.66 4.67 -7.32 4.34 -8 4 C-2.25 0 -2.25 0 0 0 Z " fill="#2E2E2E" transform="translate(194,52)"/>
<path d="M0 0 C3.37503669 1.1858237 5.64722731 2.27573689 8 5 C7.01 5.495 7.01 5.495 6 6 C3.4375 4.75 3.4375 4.75 1 3 C0.67 2.01 0.34 1.02 0 0 Z " fill="#727272" transform="translate(96,196)"/>
<path d="M0 0 C2.91517292 1.07401108 4.77810176 1.77810176 7 4 C5.35 4.33 3.7 4.66 2 5 C1.34 3.35 0.68 1.7 0 0 Z " fill="#8C8C8C" transform="translate(220,166)"/>
<path d="M0 0 C2.6875 0.3125 2.6875 0.3125 5 1 C5 1.99 5 2.98 5 4 C4.13375 3.4740625 4.13375 3.4740625 3.25 2.9375 C0.64198224 1.85082593 -0.39417629 2.06934867 -3 3 C-1.8125 1.4375 -1.8125 1.4375 0 0 Z " fill="#DBDBDB" transform="translate(171,139)"/>
<path d="M0 0 C-0.33 0.66 -0.66 1.32 -1 2 C-0.34 2 0.32 2 1 2 C1 2.66 1 3.32 1 4 C-1.02045442 3.39816251 -3.02111039 2.72693904 -5 2 C-5.33 1.34 -5.66 0.68 -6 0 C-2.25 -1.125 -2.25 -1.125 0 0 Z " fill="#888888" transform="translate(280,100)"/>
<path d="M0 0 C2.91517292 1.07401108 4.77810176 1.77810176 7 4 C4.69 4.33 2.38 4.66 0 5 C0 3.35 0 1.7 0 0 Z " fill="#8D8D8D" transform="translate(307,47)"/>
</svg>
