<?xml version="1.0" encoding="UTF-8"?>
<svg version="1.1" xmlns="http://www.w3.org/2000/svg" width="517" height="482">
<path d="M0 0 C170.61 0 341.22 0 517 0 C517 159.06 517 318.12 517 482 C346.39 482 175.78 482 0 482 C0 322.94 0 163.88 0 0 Z " fill="#000000" transform="translate(0,0)"/>
<path d="M0 0 C4.7828225 2.21630245 9.23834331 4.84565166 13.72558594 7.60400391 C16.1199607 9.07362981 18.53028707 10.51380266 20.9453125 11.94921875 C25.19778903 14.48081385 29.43727573 17.03319323 33.67236328 19.59375 C36.94367982 21.57012752 40.22160812 23.53539032 43.5 25.5 C44.71098099 26.22649002 45.92191769 26.95305386 47.1328125 27.6796875 C47.75317383 28.0519043 48.37353516 28.42412109 49.01269531 28.80761719 C77.1328125 45.6796875 77.1328125 45.6796875 80.30126953 47.58081055 C82.43500116 48.86101695 84.56879029 50.14112752 86.70263672 51.42114258 C91.6155946 54.36838798 96.52788836 57.31671438 101.4375 60.26953125 C103.12492588 61.28397746 104.81242381 62.29830385 106.5 63.3125 C107.31412354 63.80177979 108.12824707 64.29105957 108.96704102 64.79516602 C113.41889869 67.46610036 117.88452282 70.11106894 122.36816406 72.72827148 C125.92078935 74.80426878 129.46236561 76.89857515 133 79 C134.33538818 79.79204834 134.33538818 79.79204834 135.69775391 80.60009766 C138.55632096 82.30408346 141.40412825 84.02490954 144.25 85.75 C145.14388428 86.28101318 146.03776855 86.81202637 146.95874023 87.35913086 C153.65827512 91.45382415 158.4481384 95.30128206 161 103 C161.24723816 105.7829895 161.24723816 105.7829895 161.24291992 108.84423828 C161.24599655 109.99538116 161.24907318 111.14652405 161.25224304 112.33255005 C161.24146477 114.18274246 161.24146477 114.18274246 161.23046875 116.0703125 C161.23001053 117.34349335 161.22955231 118.61667419 161.2290802 119.92843628 C161.22606177 122.61665298 161.21926577 125.30452461 161.20581055 127.99267578 C161.18878713 131.43711497 161.18499748 134.88140753 161.18575573 138.32588387 C161.18541849 141.6157079 161.17658205 144.90550122 161.16796875 148.1953125 C161.16685593 149.43282257 161.1657431 150.67033264 161.16459656 151.94534302 C161.15821671 153.09018158 161.15183685 154.23502014 161.14526367 155.41455078 C161.14145187 156.42317169 161.13764008 157.4317926 161.13371277 158.47097778 C161 161 161 161 160 164 C155.66715771 163.47370876 152.66818772 162.5127489 148.96484375 160.21875 C147.52564575 159.33956909 147.52564575 159.33956909 146.05737305 158.44262695 C144.51303589 157.48102661 144.51303589 157.48102661 142.9375 156.5 C141.27218971 155.48126115 139.60684738 154.46257237 137.94013977 153.44612122 C136.7713028 152.73324946 135.60309016 152.01935312 134.43547058 151.30448914 C128.35234666 147.58588267 122.20167758 143.9856601 116.04278564 140.39440918 C106.38408349 134.76194037 96.75543851 129.08329069 87.17797852 123.31347656 C78.39702624 118.02590468 69.5674923 112.82120219 60.73828125 107.61474609 C46.89611915 99.45211591 33.06822309 91.2655762 19.25 83.0625 C18.56431946 82.65553894 17.87863892 82.24857788 17.17218018 81.82928467 C15.83082758 81.03310699 14.48966734 80.23660513 13.14871216 79.4397583 C11.8658427 78.6784438 10.5819084 77.9189204 9.29684448 77.16131592 C6.49756081 75.50735995 3.73496928 73.82902497 1.00195312 72.06591797 C0.12990234 71.50662598 -0.74214844 70.94733398 -1.640625 70.37109375 C-2.37313477 69.88439209 -3.10564453 69.39769043 -3.86035156 68.89624023 C-6.69805181 67.70760518 -8.09640579 68.0594268 -11 69 C-13.36046047 70.18077993 -13.36046047 70.18077993 -15.671875 71.6875 C-16.54392578 72.22890625 -17.41597656 72.7703125 -18.31445312 73.328125 C-19.20068359 73.87984375 -20.08691406 74.4315625 -21 75 C-22.66833498 75.98518616 -24.3402003 76.96441961 -26.015625 77.9375 C-37.52114899 84.66190519 -48.83273646 91.63288136 -60.046875 98.83203125 C-64.10677137 101.43767089 -68.19502298 103.98642391 -72.3125 106.5 C-74.20910407 107.66541329 -76.10500851 108.83196645 -78 110 C-79.37671875 110.84498047 -79.37671875 110.84498047 -80.78125 111.70703125 C-81.6165625 112.23683594 -82.451875 112.76664062 -83.3125 113.3125 C-84.03050781 113.76238281 -84.74851562 114.21226562 -85.48828125 114.67578125 C-85.98714844 115.11277344 -86.48601562 115.54976563 -87 116 C-87 116.99 -87 117.98 -87 119 C-86.16984375 119.45246094 -85.3396875 119.90492188 -84.484375 120.37109375 C-73.87816516 126.21841022 -63.53137694 132.47586267 -53.20214844 138.79467773 C-46.78237791 142.71963895 -40.33137055 146.58064752 -33.82226562 150.35644531 C-29.48180874 152.88412314 -25.1780191 155.47176681 -20.875 158.0625 C-20.05902344 158.55298828 -19.24304688 159.04347656 -18.40234375 159.54882812 C-11.65458709 163.60494409 -11.65458709 163.60494409 -8.62744141 165.43188477 C-2.85850705 168.90692804 2.94786687 172.31444336 8.765625 175.70703125 C19.90655378 182.20386815 30.99327424 188.77820418 42 195.5 C52.8322786 202.11476954 63.74585792 208.57795219 74.70703125 214.9765625 C82.28078567 219.39869803 89.82035768 223.87277126 97.32836914 228.40576172 C103.40655901 232.06618686 109.52575672 235.6540914 115.65429688 239.22924805 C125.80644128 245.15215174 135.95219461 251.08893457 146 257.1875 C146.84747803 257.69144287 147.69495605 258.19538574 148.56811523 258.71459961 C154.62630947 262.43066662 158.98373412 265.60007552 161.10302734 272.69018555 C162.06183741 276.81088678 162.34400432 280.87266849 162.4140625 285.09375 C162.44311172 286.21843689 162.44311172 286.21843689 162.4727478 287.36584473 C162.53187246 289.74378464 162.5784444 292.12178467 162.625 294.5 C162.66328432 296.06251926 162.70234164 297.62501978 162.7421875 299.1875 C162.9261222 306.7477602 163.03912327 314.30863644 163.0703125 321.87109375 C163.07562988 323.13622803 163.08094727 324.4013623 163.08642578 325.70483398 C162.86251211 334.24201715 159.9226818 341.52607964 153.73364258 347.55639648 C149.73390047 350.88698022 145.17962265 353.47601315 140.75 356.1875 C139.6767749 356.85096436 138.6035498 357.51442871 137.49780273 358.19799805 C129.39577694 363.18949492 121.23105497 368.06590651 112.99902344 372.83935547 C109.55474204 374.8391251 106.12089745 376.85661701 102.6875 378.875 C101.98254395 379.28927246 101.27758789 379.70354492 100.55126953 380.13037109 C95.32951078 383.20442342 90.13013667 386.31455861 84.9375 389.4375 C63.62526784 402.2507547 42.23488965 414.93411029 20.7265625 427.41552734 C17.9503662 429.02884342 15.17801392 430.64861383 12.40625 432.26953125 C10.66673452 433.28397053 8.92715456 434.29829924 7.1875 435.3125 C6.39819092 435.77527344 5.60888184 436.23804688 4.7956543 436.71484375 C4.07289307 437.13507813 3.35013184 437.5553125 2.60546875 437.98828125 C1.97793701 438.35477783 1.35040527 438.72127441 0.70385742 439.09887695 C-3.40664637 441.27280868 -7.45587719 441.49744617 -12 441 C-15.2890625 439.70703125 -15.2890625 439.70703125 -18.625 437.8125 C-19.56110107 437.28825439 -19.56110107 437.28825439 -20.51611328 436.75341797 C-22.69074659 435.524141 -24.84596694 434.26501646 -27 433 C-27.84498047 432.50709473 -28.68996094 432.01418945 -29.56054688 431.50634766 C-35.19001084 428.21707421 -40.79655608 424.89036139 -46.39599609 421.55029297 C-49.98422224 419.41404357 -53.5851556 417.29982034 -57.1875 415.1875 C-64.38776586 410.95898023 -71.56893832 406.69853003 -78.75 402.4375 C-88.42042177 396.69984644 -98.10887733 390.99381586 -107.8125 385.3125 C-126.7888872 374.20194679 -126.7888872 374.20194679 -136.0715332 368.68432617 C-140.70348432 365.93303639 -145.35334308 363.22039815 -150.03515625 360.5546875 C-151.03297119 359.98073242 -152.03078613 359.40677734 -153.05883789 358.81542969 C-154.95681545 357.72456917 -156.86059614 356.64371515 -158.77124023 355.57519531 C-165.82771075 351.49680016 -171.23851645 347.01890744 -174.4022522 339.29907227 C-175.78000897 333.99991038 -175.35778827 328.40714603 -175.29296875 322.97265625 C-175.28736523 321.61503063 -175.2830987 320.2573989 -175.28010559 318.89976501 C-175.26871615 315.34702456 -175.23930109 311.79465898 -175.20599365 308.24206543 C-175.17516443 304.60869415 -175.16157296 300.97526159 -175.14648438 297.34179688 C-175.11442471 290.22771233 -175.06330106 283.11388079 -175 276 C-171.20500212 277.23210472 -167.80500828 278.5064484 -164.34765625 280.50390625 C-163.07184692 281.23649658 -163.07184692 281.23649658 -161.77026367 281.98388672 C-160.42992065 282.76530029 -160.42992065 282.76530029 -159.0625 283.5625 C-157.655448 284.37485107 -157.655448 284.37485107 -156.2199707 285.20361328 C-150.42791207 288.55740607 -144.66923537 291.96365214 -138.94433594 295.43066406 C-133.10666474 298.95947546 -127.2097992 302.38452696 -121.3125 305.8125 C-112.8613332 310.72769121 -104.45015648 315.70260603 -96.07617188 320.74804688 C-91.00643698 323.80127134 -85.91968034 326.82237499 -80.8125 329.8125 C-73.71737085 333.96701373 -66.66929651 338.19745997 -59.625 342.4375 C-51.3611365 347.40861873 -43.07486868 352.33273969 -34.70654297 357.1262207 C-30.87224401 359.32419208 -27.06661043 361.55599704 -23.296875 363.86328125 C-22.53246094 364.32694092 -21.76804688 364.79060059 -20.98046875 365.26831055 C-19.54481488 366.14155142 -18.11461177 367.0238508 -16.69140625 367.91723633 C-12.48249191 370.46432259 -9.03955297 371.87636611 -4 372 C-1.20913657 371.1606019 -1.20913657 371.1606019 1.25 369.6875 C2.08015625 369.23761719 2.9103125 368.78773438 3.765625 368.32421875 C5.54372105 367.27041707 7.2802256 366.14651627 9 365 C9.99 365 10.98 365 12 365 C12 364.34 12 363.68 12 363 C12.86625 362.5875 13.7325 362.175 14.625 361.75 C18.04956847 360.06193844 18.04956847 360.06193844 21.1875 357.8125 C24 356 24 356 27 356 C27 355.34 27 354.68 27 354 C28.43294498 353.15885829 29.87154405 352.32734313 31.3125 351.5 C32.11300781 351.0359375 32.91351563 350.571875 33.73828125 350.09375 C36 349 36 349 39 349 C39 348.34 39 347.68 39 347 C41.08203125 345.4921875 41.08203125 345.4921875 43.8125 343.875 C45.15248047 343.06675781 45.15248047 343.06675781 46.51953125 342.2421875 C49 341 49 341 52 341 C52 340.34 52 339.68 52 339 C52.78375 338.62875 53.5675 338.2575 54.375 337.875 C61.21974597 334.45262702 67.66344759 330.27348883 74 326 C78.71428571 323 78.71428571 323 81 323 C78.3841475 320.06624876 75.34270923 318.22446344 72 316.1875 C70.4221875 315.21876953 70.4221875 315.21876953 68.8125 314.23046875 C65.84177646 312.45969572 62.81688586 310.80637307 59.7734375 309.1640625 C53.95102903 306.00753207 48.28656047 302.62215229 42.625 299.1875 C31.77552912 292.63945032 20.86496471 286.20222931 9.92236328 279.8112793 C3.25555746 275.91659048 -3.39041326 271.99110581 -10 268 C-21.92646386 260.80458497 -33.89986317 253.69454239 -45.92285156 246.6618042 C-54.90388278 241.4083113 -63.86642972 236.12533997 -72.8125 230.8125 C-83.09327614 224.70942704 -93.406307 218.66432934 -103.73828125 212.6484375 C-140.79537126 191.06907943 -140.79537126 191.06907943 -150.4921875 185.0859375 C-153.2103248 183.42689784 -155.99536235 181.94580111 -158.8203125 180.4765625 C-170.94647634 173.98726685 -170.94647634 173.98726685 -173.51171875 169.1484375 C-174.06780262 165.7051662 -174.05028935 162.4879256 -174 159 C-174.14660852 157.49371564 -174.31750876 155.98967098 -174.5078125 154.48828125 C-175.80905835 144.10602237 -176.20460923 133.77232109 -176.25 123.3125 C-176.25918457 122.14323975 -176.26836914 120.97397949 -176.27783203 119.76928711 C-176.21306543 101.69811073 -176.21306543 101.69811073 -171.1875 95.625 C-170.70667969 95.01914063 -170.22585937 94.41328125 -169.73046875 93.7890625 C-164.8528298 88.74626647 -158.95259568 85.49320803 -152.9375 82 C-150.95537879 80.83913971 -148.97361559 79.67766795 -146.9921875 78.515625 C-145.49123535 77.63680664 -145.49123535 77.63680664 -143.95996094 76.74023438 C-139.47730088 74.10476746 -135.01855651 71.43012961 -130.5625 68.75 C-129.72702637 68.24815186 -128.89155273 67.74630371 -128.03076172 67.22924805 C-124.49727417 65.10600998 -120.96550117 62.97999792 -117.4375 60.84765625 C-110.33673168 56.5658272 -103.19630567 52.35658631 -96.03613281 48.17480469 C-94.7949215 47.44987043 -93.55371057 46.72493553 -92.3125 46 C-91.69242065 45.63797485 -91.07234131 45.27594971 -90.43347168 44.9029541 C-80.99713782 39.38974788 -71.63640617 33.76344916 -62.3125 28.0625 C-52.68418666 22.17857665 -42.97274088 16.50896803 -33.05566406 11.125 C-28.7186489 8.75148861 -24.42360136 6.30227927 -20.12207031 3.86523438 C-18.41857681 2.90328257 -16.70956284 1.95112369 -15 1 C-14.29101562 0.59136719 -13.58203125 0.18273437 -12.8515625 -0.23828125 C-8.58118248 -1.99508316 -4.3553028 -1.11594947 0 0 Z " fill="#3A3A3A" transform="translate(262,21)"/>
<path d="M0 0 C4.7828225 2.21630245 9.23834331 4.84565166 13.72558594 7.60400391 C16.1199607 9.07362981 18.53028707 10.51380266 20.9453125 11.94921875 C25.19778903 14.48081385 29.43727573 17.03319323 33.67236328 19.59375 C36.94367982 21.57012752 40.22160812 23.53539032 43.5 25.5 C44.71098099 26.22649002 45.92191769 26.95305386 47.1328125 27.6796875 C47.75317383 28.0519043 48.37353516 28.42412109 49.01269531 28.80761719 C77.1328125 45.6796875 77.1328125 45.6796875 80.30126953 47.58081055 C82.43500116 48.86101695 84.56879029 50.14112752 86.70263672 51.42114258 C91.6155946 54.36838798 96.52788836 57.31671438 101.4375 60.26953125 C103.12492588 61.28397746 104.81242381 62.29830385 106.5 63.3125 C107.31412354 63.80177979 108.12824707 64.29105957 108.96704102 64.79516602 C113.41889869 67.46610036 117.88452282 70.11106894 122.36816406 72.72827148 C125.92078935 74.80426878 129.46236561 76.89857515 133 79 C134.33538818 79.79204834 134.33538818 79.79204834 135.69775391 80.60009766 C138.55632096 82.30408346 141.40412825 84.02490954 144.25 85.75 C145.14388428 86.28101318 146.03776855 86.81202637 146.95874023 87.35913086 C153.65827512 91.45382415 158.4481384 95.30128206 161 103 C161.24723816 105.7829895 161.24723816 105.7829895 161.24291992 108.84423828 C161.24599655 109.99538116 161.24907318 111.14652405 161.25224304 112.33255005 C161.24146477 114.18274246 161.24146477 114.18274246 161.23046875 116.0703125 C161.23001053 117.34349335 161.22955231 118.61667419 161.2290802 119.92843628 C161.22606177 122.61665298 161.21926577 125.30452461 161.20581055 127.99267578 C161.18878713 131.43711497 161.18499748 134.88140753 161.18575573 138.32588387 C161.18541849 141.6157079 161.17658205 144.90550122 161.16796875 148.1953125 C161.16685593 149.43282257 161.1657431 150.67033264 161.16459656 151.94534302 C161.15821671 153.09018158 161.15183685 154.23502014 161.14526367 155.41455078 C161.14145187 156.42317169 161.13764008 157.4317926 161.13371277 158.47097778 C161 161 161 161 160 164 C155.66715771 163.47370876 152.66818772 162.5127489 148.96484375 160.21875 C147.52564575 159.33956909 147.52564575 159.33956909 146.05737305 158.44262695 C144.51303589 157.48102661 144.51303589 157.48102661 142.9375 156.5 C141.27218971 155.48126115 139.60684738 154.46257237 137.94013977 153.44612122 C136.7713028 152.73324946 135.60309016 152.01935312 134.43547058 151.30448914 C128.35234666 147.58588267 122.20167758 143.9856601 116.04278564 140.39440918 C106.38408349 134.76194037 96.75543851 129.08329069 87.17797852 123.31347656 C78.39702624 118.02590468 69.5674923 112.82120219 60.73828125 107.61474609 C46.89611915 99.45211591 33.06822309 91.2655762 19.25 83.0625 C18.56431946 82.65553894 17.87863892 82.24857788 17.17218018 81.82928467 C15.83082758 81.03310699 14.48966734 80.23660513 13.14871216 79.4397583 C11.8658427 78.6784438 10.5819084 77.9189204 9.29684448 77.16131592 C6.49756081 75.50735995 3.73496928 73.82902497 1.00195312 72.06591797 C0.12990234 71.50662598 -0.74214844 70.94733398 -1.640625 70.37109375 C-2.37313477 69.88439209 -3.10564453 69.39769043 -3.86035156 68.89624023 C-6.69805181 67.70760518 -8.09640579 68.0594268 -11 69 C-13.36046047 70.18077993 -13.36046047 70.18077993 -15.671875 71.6875 C-16.54392578 72.22890625 -17.41597656 72.7703125 -18.31445312 73.328125 C-19.20068359 73.87984375 -20.08691406 74.4315625 -21 75 C-22.66833498 75.98518616 -24.3402003 76.96441961 -26.015625 77.9375 C-37.52114899 84.66190519 -48.83273646 91.63288136 -60.046875 98.83203125 C-64.10677137 101.43767089 -68.19502298 103.98642391 -72.3125 106.5 C-74.20910407 107.66541329 -76.10500851 108.83196645 -78 110 C-79.37671875 110.84498047 -79.37671875 110.84498047 -80.78125 111.70703125 C-81.6165625 112.23683594 -82.451875 112.76664062 -83.3125 113.3125 C-84.03050781 113.76238281 -84.74851562 114.21226562 -85.48828125 114.67578125 C-85.98714844 115.11277344 -86.48601562 115.54976563 -87 116 C-87 116.99 -87 117.98 -87 119 C-86.16984375 119.45246094 -85.3396875 119.90492188 -84.484375 120.37109375 C-73.87816516 126.21841022 -63.53137694 132.47586267 -53.20214844 138.79467773 C-46.79247089 142.71348395 -40.35187633 146.56895346 -33.85302734 150.33886719 C-29.35706036 152.95657721 -24.89673687 155.63285114 -20.4375 158.3125 C-19.56287109 158.83650391 -18.68824219 159.36050781 -17.78710938 159.90039062 C-16.94857422 160.40376953 -16.11003906 160.90714844 -15.24609375 161.42578125 C-14.50029053 161.87348877 -13.7544873 162.32119629 -12.98608398 162.7824707 C-11.29970598 163.81627121 -9.64582288 164.90278475 -8 166 C-7.63085651 167.82345009 -7.63085651 167.82345009 -7.63923645 170.07485962 C-7.63305046 171.35372795 -7.63305046 171.35372795 -7.6267395 172.65843201 C-7.63752533 173.59566605 -7.64831116 174.53290009 -7.65942383 175.49853516 C-7.65898575 176.48393784 -7.65854767 177.46934052 -7.65809631 178.48460388 C-7.66019211 181.75295592 -7.68356065 185.0207997 -7.70703125 188.2890625 C-7.71262438 190.55064616 -7.71689581 192.81223344 -7.71989441 195.07382202 C-7.73136539 201.03501366 -7.76085204 206.99598706 -7.79400635 212.95709229 C-7.82465867 219.03646899 -7.83838939 225.11588085 -7.85351562 231.1953125 C-7.88571951 243.13030438 -7.93694309 255.06513406 -8 267 C-12.31120659 266.24131883 -15.27845602 264.89064475 -19.05859375 262.640625 C-19.63505142 262.30025208 -20.21150909 261.95987915 -20.80543518 261.60919189 C-22.68686035 260.49616749 -24.56210339 259.37314706 -26.4375 258.25 C-27.75415015 257.4687145 -29.07121205 256.68812251 -30.38867188 255.90820312 C-33.03466828 254.34038547 -35.67833693 252.76876207 -38.31982422 251.19335938 C-42.34737185 248.79147642 -46.38401811 246.40516229 -50.42236328 244.02148438 C-52.15693557 242.99763 -53.89097584 241.97287383 -55.62451172 240.94726562 C-63.09269112 236.52912493 -70.5761113 232.13717746 -78.0625 227.75 C-79.29744556 227.0260432 -80.53239022 226.30208486 -81.76733398 225.578125 C-87.34018469 222.3118717 -92.914605 219.04837641 -98.49468994 215.79449463 C-101.51820639 214.03122507 -104.54066781 212.26615427 -107.5625 210.5 C-108.15728149 210.15239624 -108.75206299 209.80479248 -109.36486816 209.44665527 C-119.17380773 203.7084223 -128.89692533 197.8367306 -138.59384155 191.91152954 C-146.05364619 187.35516312 -153.53715358 182.87474514 -161.21020508 178.68554688 C-162.81594168 177.8068618 -164.40840241 176.90404347 -166 176 C-167.65128906 175.06414062 -167.65128906 175.06414062 -169.3359375 174.109375 C-172 172 -172 172 -172.953125 169.50390625 C-173.05109375 168.53324219 -173.1490625 167.56257812 -173.25 166.5625 C-173.37632812 165.39976562 -173.50265625 164.23703125 -173.6328125 163.0390625 C-173.68985352 162.39356445 -173.74689453 161.74806641 -173.80566406 161.08300781 C-174.0122267 158.86894699 -174.28013121 156.66755654 -174.5546875 154.4609375 C-175.77527125 144.08185202 -176.20465685 133.76134732 -176.25 123.3125 C-176.25918457 122.14323975 -176.26836914 120.97397949 -176.27783203 119.76928711 C-176.21306543 101.69811073 -176.21306543 101.69811073 -171.1875 95.625 C-170.70667969 95.01914063 -170.22585937 94.41328125 -169.73046875 93.7890625 C-164.8528298 88.74626647 -158.95259568 85.49320803 -152.9375 82 C-150.95537879 80.83913971 -148.97361559 79.67766795 -146.9921875 78.515625 C-145.49123535 77.63680664 -145.49123535 77.63680664 -143.95996094 76.74023438 C-139.47730088 74.10476746 -135.01855651 71.43012961 -130.5625 68.75 C-129.72702637 68.24815186 -128.89155273 67.74630371 -128.03076172 67.22924805 C-124.49727417 65.10600998 -120.96550117 62.97999792 -117.4375 60.84765625 C-110.33673168 56.5658272 -103.19630567 52.35658631 -96.03613281 48.17480469 C-94.7949215 47.44987043 -93.55371057 46.72493553 -92.3125 46 C-91.69242065 45.63797485 -91.07234131 45.27594971 -90.43347168 44.9029541 C-80.99713782 39.38974788 -71.63640617 33.76344916 -62.3125 28.0625 C-52.68418666 22.17857665 -42.97274088 16.50896803 -33.05566406 11.125 C-28.7186489 8.75148861 -24.42360136 6.30227927 -20.12207031 3.86523438 C-18.41857681 2.90328257 -16.70956284 1.95112369 -15 1 C-14.29101562 0.59136719 -13.58203125 0.18273437 -12.8515625 -0.23828125 C-8.58118248 -1.99508316 -4.3553028 -1.11594947 0 0 Z " fill="#2D2D2D" transform="translate(262,21)"/>
<path d="M0 0 C3.01002341 1.06570196 5.71718847 2.62181696 8.47973633 4.20092773 C9.14972656 4.58039551 9.8197168 4.95986328 10.51000977 5.35083008 C19.03225487 10.22999225 27.40225898 15.37150788 35.77856445 20.49584961 C42.18772109 24.41490556 48.6281332 28.27003968 55.12670898 32.03979492 C59.62267597 34.65750495 64.08299946 37.33377887 68.54223633 40.01342773 C69.85417969 40.79943359 69.85417969 40.79943359 71.19262695 41.60131836 C72.03116211 42.10469727 72.86969727 42.60807617 73.73364258 43.12670898 C74.4794458 43.5744165 75.22524902 44.02212402 75.99365234 44.48339844 C77.68003035 45.51719894 79.33391345 46.60371248 80.97973633 47.70092773 C81.34887981 49.52437782 81.34887981 49.52437782 81.34049988 51.77578735 C81.34668587 53.05465569 81.34668587 53.05465569 81.35299683 54.35935974 C81.342211 55.29659378 81.33142517 56.23382782 81.3203125 57.19946289 C81.32075058 58.18486557 81.32118866 59.17026825 81.32164001 60.18553162 C81.31954421 63.45388365 81.29617568 66.72172743 81.27270508 69.98999023 C81.26711194 72.25157389 81.26284052 74.51316117 81.25984192 76.77474976 C81.24837093 82.73594139 81.21888429 88.69691479 81.18572998 94.65802002 C81.15507766 100.73739672 81.14134694 106.81680858 81.1262207 112.89624023 C81.09401682 124.83123211 81.04279323 136.7660618 80.97973633 148.70092773 C76.66852973 147.94224657 73.70128031 146.59157249 69.92114258 144.34155273 C69.34468491 144.00117981 68.76822723 143.66080688 68.17430115 143.31011963 C66.29287598 142.19709523 64.41763294 141.0740748 62.54223633 139.95092773 C61.22558618 139.16964223 59.90852428 138.38905024 58.59106445 137.60913086 C55.94506804 136.04131321 53.3013994 134.4696898 50.65991211 132.89428711 C46.63236448 130.49240416 42.59571822 128.10609002 38.55737305 125.72241211 C36.82280076 124.69855773 35.08876048 123.67380156 33.35522461 122.64819336 C25.88704521 118.23005266 18.40362503 113.83810519 10.91723633 109.45092773 C9.68229077 108.72697094 8.44734611 108.0030126 7.21240234 107.27905273 C1.63955164 104.01279944 -3.93486867 100.74930414 -9.51495361 97.49542236 C-12.53847006 95.73215281 -15.56093149 93.967082 -18.58276367 92.20092773 C-19.17754517 91.85332397 -19.77232666 91.50572021 -20.38513184 91.14758301 C-30.19378384 85.40951826 -39.91793728 79.53993684 -49.61309814 73.61245728 C-57.09405784 69.04006447 -64.59757796 64.5442081 -72.31835938 60.38647461 C-75.85759672 58.46088523 -78.94556741 56.30436214 -82.02026367 53.70092773 C-80.64252549 50.39655344 -79.31189225 48.92354147 -76.26635742 47.07202148 C-75.50371582 46.60054687 -74.74107422 46.12907227 -73.95532227 45.64331055 C-72.71903076 44.89839355 -72.71903076 44.89839355 -71.45776367 44.13842773 C-69.70851465 43.05989396 -67.95982659 41.98044991 -66.21166992 40.90014648 C-64.89320068 40.0906958 -64.89320068 40.0906958 -63.5480957 39.26489258 C-59.96228964 37.04636123 -56.42684707 34.75443682 -52.89526367 32.45092773 C-44.71953012 27.13871127 -36.51051611 21.87894052 -28.28662109 16.64160156 C-23.42013004 13.53843465 -18.57087126 10.4189407 -13.78198242 7.19702148 C-13.00081055 6.6755957 -12.21963867 6.15416992 -11.41479492 5.61694336 C-9.98448207 4.65876033 -8.56079872 3.69057605 -7.14526367 2.71069336 C-2.52166105 -0.37329726 -2.52166105 -0.37329726 0 0 Z " fill="#F1F0F1" transform="translate(173.020263671875,139.299072265625)"/>
<path d="M0 0 C1.43355204 0.2967271 2.86585336 0.59950051 4.29760742 0.90478516 C5.0953508 1.0727359 5.89309418 1.24068665 6.7150116 1.41372681 C9.92465626 2.23724461 12.48105902 3.66965943 15.3125 5.375 C15.8887915 5.71732666 16.46508301 6.05965332 17.05883789 6.41235352 C18.33913214 7.17538416 19.61592262 7.94431621 20.88964844 8.71826172 C23.19284282 10.11712457 25.50579243 11.49886795 27.8203125 12.87890625 C32.10013372 15.43435548 36.37150478 18.00354989 40.64013672 20.57763672 C43.92375388 22.5567753 47.21170431 24.52864844 50.5 26.5 C51.7109665 27.22651417 52.92190345 27.95307758 54.1328125 28.6796875 C54.75317383 29.0519043 55.37353516 29.42412109 56.01269531 29.80761719 C84.1328125 46.6796875 84.1328125 46.6796875 87.30126953 48.58081055 C89.43500116 49.86101695 91.56879029 51.14112752 93.70263672 52.42114258 C98.6155946 55.36838798 103.52788836 58.31671438 108.4375 61.26953125 C110.12492588 62.28397746 111.81242381 63.29830385 113.5 64.3125 C114.31412354 64.80177979 115.12824707 65.29105957 115.96704102 65.79516602 C120.41889869 68.46610036 124.88452282 71.11106894 129.36816406 73.72827148 C132.92078935 75.80426878 136.46236561 77.89857515 140 80 C141.33538818 80.79204834 141.33538818 80.79204834 142.69775391 81.60009766 C145.55632096 83.30408346 148.40412825 85.02490954 151.25 86.75 C152.14388428 87.28101318 153.03776855 87.81202637 153.95874023 88.35913086 C160.65827512 92.45382415 165.4481384 96.30128206 168 104 C168.24723816 106.7829895 168.24723816 106.7829895 168.24291992 109.84423828 C168.24599655 110.99538116 168.24907318 112.14652405 168.25224304 113.33255005 C168.24146477 115.18274246 168.24146477 115.18274246 168.23046875 117.0703125 C168.23001053 118.34349335 168.22955231 119.61667419 168.2290802 120.92843628 C168.22606177 123.61665298 168.21926577 126.30452461 168.20581055 128.99267578 C168.18878713 132.43711497 168.18499748 135.88140753 168.18575573 139.32588387 C168.18541849 142.6157079 168.17658205 145.90550122 168.16796875 149.1953125 C168.16685593 150.43282257 168.1657431 151.67033264 168.16459656 152.94534302 C168.15821671 154.09018158 168.15183685 155.23502014 168.14526367 156.41455078 C168.14145187 157.42317169 168.13764008 158.4317926 168.13371277 159.47097778 C168 162 168 162 167 165 C162.66715771 164.47370876 159.66818772 163.5127489 155.96484375 161.21875 C154.52564575 160.33956909 154.52564575 160.33956909 153.05737305 159.44262695 C152.02781494 158.80156006 150.99825684 158.16049316 149.9375 157.5 C148.27218971 156.48126115 146.60684738 155.46257237 144.94013977 154.44612122 C143.7713028 153.73324946 142.60309016 153.01935312 141.43547058 152.30448914 C135.35234666 148.58588267 129.20167758 144.9856601 123.04278564 141.39440918 C113.38408349 135.76194037 103.75543851 130.08329069 94.17797852 124.31347656 C85.39702624 119.02590468 76.5674923 113.82120219 67.73828125 108.61474609 C60.57982593 104.39345298 53.42450974 100.16685978 46.27197266 95.93554688 C43.87865867 94.51977361 41.48508282 93.10444773 39.09130859 91.68945312 C35.53974095 89.58975173 31.98947498 87.48786161 28.43988037 85.38482666 C27.04283098 84.55749926 25.64542187 83.73077893 24.24761963 82.90472412 C22.26431541 81.7324748 20.28241634 80.55788067 18.30078125 79.3828125 C17.72744553 79.04461487 17.1541098 78.70641724 16.56340027 78.35797119 C15.38867155 77.66013887 14.22444295 76.94439052 13.07017517 76.21321106 C10.91347929 74.89899852 10.91347929 74.89899852 8.13502502 73.71586609 C4.87711285 72.08121421 2.52763228 70.63759744 0 68 C-1.52605213 62.80797403 -1.28741585 57.78300937 -1.07421875 52.44140625 C-1.05367799 50.9268918 -1.03803137 49.41230378 -1.02705383 47.89768982 C-0.98523504 43.92875018 -0.87737542 39.96430556 -0.75531006 35.99713135 C-0.64236719 31.94206565 -0.59245776 27.8862664 -0.53710938 23.83007812 C-0.41946288 15.88466546 -0.23197875 7.94289319 0 0 Z " fill="#F0F0F0" transform="translate(255,20)"/>
<path d="M0 0 C3.79499788 1.23210472 7.19499172 2.5064484 10.65234375 4.50390625 C11.5028833 4.9922998 12.35342285 5.48069336 13.22973633 5.98388672 C14.57007935 6.76530029 14.57007935 6.76530029 15.9375 7.5625 C17.344552 8.37485107 17.344552 8.37485107 18.7800293 9.20361328 C24.57208793 12.55740607 30.33076463 15.96365214 36.05566406 19.43066406 C41.89333526 22.95947546 47.7902008 26.38452696 53.6875 29.8125 C62.1386668 34.72769121 70.54984352 39.70260603 78.92382812 44.74804688 C83.99356302 47.80127134 89.08031966 50.82237499 94.1875 53.8125 C101.28262716 57.96701257 108.33079786 62.1973058 115.375 66.4375 C122.858832 70.94140821 130.36381262 75.39883768 137.9375 79.75 C144.36034128 83.44363353 150.73283706 87.21114793 157.0625 91.0625 C157.83134521 91.52817383 158.60019043 91.99384766 159.39233398 92.47363281 C160.09946533 92.90643555 160.80659668 93.33923828 161.53515625 93.78515625 C162.157854 94.16551025 162.78055176 94.54586426 163.42211914 94.93774414 C165 96 165 96 167 98 C167.24050903 100.74612427 167.24050903 100.74612427 167.22705078 104.28564453 C167.22734283 104.92967224 167.22763489 105.57369995 167.22793579 106.23724365 C167.22654074 108.36923627 167.21097174 110.50088082 167.1953125 112.6328125 C167.19158298 114.10968841 167.18873572 115.58656678 167.18673706 117.06344604 C167.17909574 120.95317398 167.15944308 124.84275288 167.1373291 128.73242188 C167.11688135 132.70050032 167.10773764 136.66860282 167.09765625 140.63671875 C167.07619756 148.42454716 167.04205572 156.21225271 167 164 C162.82732811 164.07912063 160.22114472 163.98455682 156.56640625 161.91015625 C155.76050049 161.46019287 154.95459473 161.01022949 154.12426758 160.54663086 C153.27888428 160.05686768 152.43350098 159.56710449 151.5625 159.0625 C150.67651123 158.56177979 149.79052246 158.06105957 148.87768555 157.54516602 C142.41151296 153.87129714 136.01339298 150.08416618 129.66015625 146.21875 C125.87958235 143.9190274 122.06772385 141.67485948 118.25 139.4375 C110.90290792 135.12725159 103.57522191 130.78479711 96.25 126.4375 C86.57968253 120.69967212 76.89112143 114.99381513 67.1875 109.3125 C48.2111128 98.20194679 48.2111128 98.20194679 38.9284668 92.68432617 C34.29651568 89.93303639 29.64665692 87.22039815 24.96484375 84.5546875 C23.96702881 83.98073242 22.96921387 83.40677734 21.94116211 82.81542969 C20.04318455 81.72456917 18.13940386 80.64371515 16.22875977 79.57519531 C9.17228925 75.49680016 3.76148355 71.01890744 0.5977478 63.29907227 C-0.78000897 57.99991038 -0.35778827 52.40714603 -0.29296875 46.97265625 C-0.28736523 45.61503063 -0.2830987 44.2573989 -0.28010559 42.89976501 C-0.26871615 39.34702456 -0.23930109 35.79465898 -0.20599365 32.24206543 C-0.17516443 28.60869415 -0.16157296 24.97526159 -0.14648438 21.34179688 C-0.11442471 14.22771233 -0.06330106 7.11388079 0 0 Z " fill="#F1F0F0" transform="translate(87,297)"/>
<path d="M0 0 C0.99 0.495 0.99 0.495 2 1 C1.71312499 4.22906786 1.43979223 5.61628338 -1.046875 7.78588867 C-2.38492188 8.59376831 -2.38492188 8.59376831 -3.75 9.41796875 C-4.74249756 10.02745361 -5.73499512 10.63693848 -6.75756836 11.26489258 C-7.8275708 11.89935303 -8.89757324 12.53381348 -10 13.1875 C-11.09127197 13.85096436 -12.18254395 14.51442871 -13.30688477 15.19799805 C-16.52773311 17.14963284 -19.76114669 19.07842805 -23 21 C-23.8338623 21.49790039 -24.66772461 21.99580078 -25.52685547 22.50878906 C-29.66891965 24.98018774 -33.82841998 27.41984507 -38.00097656 29.83935547 C-41.44525796 31.8391251 -44.87910255 33.85661701 -48.3125 35.875 C-49.01745605 36.28927246 -49.72241211 36.70354492 -50.44873047 37.13037109 C-55.67048922 40.20442342 -60.86986333 43.31455861 -66.0625 46.4375 C-87.45204818 59.29723832 -108.91375164 72.03950934 -130.51025391 84.54882812 C-132.84282927 85.90839156 -135.16338016 87.28612919 -137.48046875 88.671875 C-138.13966309 89.06157471 -138.79885742 89.45127441 -139.47802734 89.8527832 C-141.15170325 90.84242149 -142.82027398 91.84068073 -144.48828125 92.83984375 C-147 94 -147 94 -150 93 C-143.41786937 85.26599652 -136.11331399 80.98073954 -127.32861328 76.28027344 C-123.02237503 73.91270022 -118.82927033 71.35539591 -114.625 68.8125 C-113.81764404 68.32547607 -113.01028809 67.83845215 -112.1784668 67.33666992 C-110.58687875 66.37605782 -108.99573183 65.41471446 -107.4050293 64.45263672 C-104.10183549 62.457509 -100.79210805 60.47334669 -97.48242188 58.48901367 C-95.06914875 57.04147701 -92.6573975 55.59143937 -90.24609375 54.140625 C-80.0896506 48.03339399 -69.91130262 41.96646473 -59.67626953 35.99169922 C-58.1545899 35.09145706 -56.65221137 34.15878762 -55.15234375 33.22265625 C-53 32 -53 32 -51 32 C-51 31.34 -51 30.68 -51 30 C-50.39414062 29.70867187 -49.78828125 29.41734375 -49.1640625 29.1171875 C-43.81922339 26.50232775 -38.68408526 23.69065154 -33.609375 20.5859375 C-30.88752323 18.93163837 -28.13538221 17.33908489 -25.375 15.75 C-16.77563757 10.75141091 -8.27665372 5.51776914 0 0 Z " fill="#424241" transform="translate(413,364)"/>
<path d="M0 0 C0 22.11 0 44.22 0 67 C-0.33 67 -0.66 67 -1 67 C-1.33 46.87 -1.66 26.74 -2 6 C-3.98 7.65 -5.96 9.3 -8 11 C-10.875 11.8125 -10.875 11.8125 -13 12 C-13 12.66 -13 13.32 -13 14 C-13.60328125 14.24234375 -14.2065625 14.4846875 -14.828125 14.734375 C-19.88004673 16.79738565 -19.88004673 16.79738565 -24.125 20.125 C-26.73848113 22.73848113 -29.46147036 23.18341624 -33 24 C-33 24.66 -33 25.32 -33 26 C-35.7269181 27.46256659 -38.4569188 28.91928541 -41.1875 30.375 C-41.95642578 30.7875 -42.72535156 31.2 -43.51757812 31.625 C-47.2827401 33.62877719 -50.98361075 35.53510452 -55 37 C-55 37.66 -55 38.32 -55 39 C-56.11375 39.53625 -57.2275 40.0725 -58.375 40.625 C-62.71012429 42.77707956 -66.7970285 45.26315714 -70.8984375 47.828125 C-73 49 -73 49 -75 49 C-75 49.66 -75 50.32 -75 51 C-76.98 51.66 -78.96 52.32 -81 53 C-82.32 51.02 -83.64 49.04 -85 47 C-64.68961749 34.77208442 -44.33170716 22.62469018 -23.8125 10.75 C-22.74435059 10.13020264 -21.67620117 9.51040527 -20.57568359 8.87182617 C-5.19162486 0 -5.19162486 0 0 0 Z " fill="#525252" transform="translate(255,20)"/>
<path d="M0 0 C0.66 0.33 1.32 0.66 2 1 C-3.39918083 5.47360697 -9.05403328 9.51157856 -16 11 C-13.27587303 7.91460888 -9.90811219 5.88811092 -6.4375 3.75 C-5.84775391 3.37359375 -5.25800781 2.9971875 -4.65039062 2.609375 C-3.13894996 1.6739669 -1.57228969 0.82906354 0 0 Z " fill="#434343" transform="translate(130,98)"/>
<path d="M0 0 C0 1.98 0 3.96 0 6 C-2.97 5.505 -2.97 5.505 -6 5 C-6.33 3.68 -6.66 2.36 -7 1 C-2.25 0 -2.25 0 0 0 Z " fill="#DDDDDD" transform="translate(422,179)"/>
<path d="M0 0 C4.55384615 -0.36923077 4.55384615 -0.36923077 6.8125 1.5 C7.204375 1.995 7.59625 2.49 8 3 C6.3125 4.1875 6.3125 4.1875 4 5 C1.25 3.625 1.25 3.625 -1 2 C-0.67 1.34 -0.34 0.68 0 0 Z " fill="#E2E0E1" transform="translate(191,250)"/>
<path d="M0 0 C0 3.77910478 -0.99703962 4.46106101 -3.5 7.1875 C-4.47453125 8.26064453 -4.47453125 8.26064453 -5.46875 9.35546875 C-5.9740625 9.89816406 -6.479375 10.44085938 -7 11 C-7 7.33815476 -6.080358 5.97194 -4 3 C-1.8125 1.1875 -1.8125 1.1875 0 0 Z " fill="#404040" transform="translate(103,115)"/>
<path d="M0 0 C0.99 0.33 1.98 0.66 3 1 C2.01 1.66 1.02 2.32 0 3 C0.66 4.32 1.32 5.64 2 7 C-0.91517292 5.92598892 -2.77810176 5.22189824 -5 3 C-2.6875 1.4375 -2.6875 1.4375 0 0 Z " fill="#D7D5D6" transform="translate(116,377)"/>
<path d="M0 0 C-0.99 0.495 -0.99 0.495 -2 1 C-1.67 1.99 -1.34 2.98 -1 4 C-3.475 3.01 -3.475 3.01 -6 2 C-6 1.34 -6 0.68 -6 0 C-3.50907189 -1.24546405 -2.58919267 -0.7767578 0 0 Z " fill="#E2E0E1" transform="translate(184,418)"/>
<path d="M0 0 C2.31 0.33 4.62 0.66 7 1 C7.33 2.32 7.66 3.64 8 5 C4.62496331 3.8141763 2.35277269 2.72426311 0 0 Z " fill="#CAC9C9" transform="translate(127,389)"/>
</svg>
